<?xml version="1.0" encoding="UTF-8"?>
<svg width="94px" height="53px" viewBox="0 0 94 53" version="1.1" xmlns="http://www.w3.org/2000/svg" xmlns:xlink="http://www.w3.org/1999/xlink">
    <title>Group 3</title>
    <g id="Desktop" stroke="none" stroke-width="1" fill="none" fill-rule="evenodd">
        <g id="Consumer-Desktop-Copy-3" transform="translate(-419.000000, -501.000000)">
            <g id="Group-6" transform="translate(363.000000, 103.000000)">
                <g id="Group-16-Copy-2" transform="translate(48.000000, 370.000000)">
                    <g id="Group-3" transform="translate(8.000000, 29.000000)">
                        <rect id="Rectangle" stroke="#333647" stroke-width="1.88799994" fill="#FFFFFF" x="13.1022647" y="0" width="69.1508413" height="46.5858299" rx="1.88799994"></rect>
                        <rect id="Rectangle-Copy-2" stroke="#2D2F41" stroke-width="1.88799994" fill="#EFC37C" x="18.1975898" y="5.09532515" width="58.960191" height="34.2114689" rx="1.88799994"></rect>
                        <rect id="Rectangle-Copy-3" stroke="#2D2F41" stroke-width="1.88799994" fill="#EFC37C" x="18.1975898" y="5.09532515" width="58.960191" height="34.2114689" rx="1.88799994"></rect>
                        <path d="M4.63702469,45.1300228 L88.5284141,45.1300228 C89.5711277,45.1300228 90.4164141,45.9753091 90.4164141,47.0180227 C90.4164141,47.5272694 90.2106953,48.0149209 89.8459489,48.3702971 L87.1948894,50.9532515 L87.1948894,50.9532515 L7.88453836,50.9532515 C7.45315985,50.9532515 7.03478969,50.8055269 6.69905237,50.5346619 L3.60894717,48.0416371 C2.90516934,47.4738456 2.79493066,46.443035 3.3627222,45.7392571 C3.67355112,45.3539846 4.14199986,45.1300228 4.63702469,45.1300228 Z" id="Rectangle-Copy" stroke="#333647" stroke-width="1.88799994" fill="#FFFFFF"></path>
                        <polygon id="Path-5" fill="#FFFFFF" points="60.4159982 34.5 60.4159982 20.3813006 69.8787449 29.8440473 65.7135081 29.8440473 67.2642109 33.7565078 65.1473716 34.9393725 63.6474368 31.2631814"></polygon>
                    </g>
                </g>
            </g>
        </g>
    </g>
</svg>
