<?xml version="1.0" encoding="UTF-8"?>
<svg width="230px" height="24px" viewBox="0 0 230 24" version="1.1" xmlns="http://www.w3.org/2000/svg" xmlns:xlink="http://www.w3.org/1999/xlink">
    <title>MetLife Logo with Legal Plans Text</title>
    <g id="V0" stroke="none" stroke-width="1" fill="none" fill-rule="evenodd">
        <g id="MetLife-Logo-with-Legal-Plans-Text">
            <polygon id="Path" fill="#009CDC" fill-rule="nonzero" points="141.37 19.8 141.37 6.25 142.59 6.25 142.59 18.69 149.43 18.69 149.43 19.8"></polygon>
            <path d="M158.7,17.22 C158.18,18.77 156.81,20.05 154.71,20.05 C152.3,20.05 150.28,18.27 150.28,15.22 C150.28,12.35 152.23,10.44 154.5,10.44 C157.19,10.44 158.74,12.35 158.76,15.04 C158.76,15.19 158.76,15.31 158.74,15.46 L151.44,15.46 L151.44,15.54 C151.46,17.64 152.91,19.02 154.71,19.02 C156.35,19.02 157.31,18.06 157.69,16.86 L158.7,17.22 Z M157.55,14.51 C157.51,12.81 156.42,11.47 154.51,11.47 C152.81,11.47 151.59,12.83 151.47,14.51 L157.55,14.51 Z" id="Shape" fill="#009CDC" fill-rule="nonzero"></path>
            <path d="M161.39,20.05 C161.54,21.48 162.69,22.67 164.31,22.67 C166.72,22.67 167.44,21.05 167.44,19.15 L167.44,17.47 C167.04,18.41 166.03,19.32 164.36,19.32 C161.97,19.32 160.29,17.43 160.29,14.89 C160.29,12.41 161.93,10.48 164.36,10.48 C166.06,10.48 167,11.32 167.46,12.26 L167.46,10.69 L168.59,10.69 L168.59,19.13 C168.59,21.25 167.65,23.68 164.29,23.68 C162.07,23.68 160.53,22.23 160.3,20.32 L161.39,20.05 Z M167.48,14.89 C167.48,12.92 166.3,11.47 164.5,11.47 C162.69,11.47 161.44,12.9 161.44,14.89 C161.44,16.88 162.66,18.33 164.5,18.33 C166.3,18.33 167.48,16.88 167.48,14.89 Z" id="Shape" fill="#009CDC" fill-rule="nonzero"></path>
            <path d="M170.71,17.45 C170.71,15.9 171.78,15 173.44,14.76 L175.87,14.4 C176.65,14.29 176.83,13.94 176.83,13.52 C176.83,12.32 176.03,11.46 174.54,11.46 C173.09,11.46 172.13,12.26 171.98,13.58 L170.91,13.35 C171.12,11.61 172.57,10.47 174.52,10.47 C176.89,10.47 177.98,11.9 177.98,13.64 L177.98,18.24 C177.98,18.97 178.04,19.42 178.11,19.81 L176.98,19.81 C176.94,19.6 176.87,18.99 176.87,18.24 C176.45,19.1 175.36,20.04 173.7,20.04 C171.78,20.03 170.71,18.77 170.71,17.45 Z M176.82,16.07 L176.82,15.04 C176.76,15.1 176.51,15.21 176.15,15.27 L173.61,15.65 C172.54,15.8 171.87,16.4 171.87,17.39 C171.87,18.23 172.56,19.05 173.82,19.05 C175.56,19.05 176.82,17.91 176.82,16.07 Z" id="Shape" fill="#009CDC" fill-rule="nonzero"></path>
            <polygon id="Path" fill="#009CDC" fill-rule="nonzero" points="180.57 19.8 180.57 6 181.72 6 181.72 19.79 180.57 19.79"></polygon>
            <path d="M191,14.07 L191,19.8 L189.78,19.8 L189.78,6.25 L194.25,6.25 C196.73,6.25 198.39,7.93 198.39,10.17 C198.39,12.41 196.73,14.07 194.25,14.07 L191,14.07 Z M194.05,12.98 C195.98,12.98 197.16,11.83 197.16,10.17 C197.16,8.51 195.98,7.34 194.05,7.34 L191,7.34 L191,12.98 L194.05,12.98 Z" id="Shape" fill="#009CDC" fill-rule="nonzero"></path>
            <polygon id="Path" fill="#009CDC" fill-rule="nonzero" points="200.18 19.8 200.18 6 201.33 6 201.33 19.79 200.18 19.79"></polygon>
            <path d="M203.43,17.45 C203.43,15.9 204.5,15 206.16,14.76 L208.59,14.4 C209.37,14.29 209.55,13.94 209.55,13.52 C209.55,12.32 208.75,11.46 207.26,11.46 C205.81,11.46 204.85,12.26 204.7,13.58 L203.63,13.35 C203.84,11.61 205.29,10.47 207.24,10.47 C209.61,10.47 210.7,11.9 210.7,13.64 L210.7,18.24 C210.7,18.97 210.76,19.42 210.83,19.81 L209.7,19.81 C209.66,19.6 209.59,18.99 209.59,18.24 C209.17,19.1 208.08,20.04 206.42,20.04 C204.5,20.03 203.43,18.77 203.43,17.45 Z M209.54,16.07 L209.54,15.04 C209.48,15.1 209.24,15.21 208.87,15.27 L206.33,15.65 C205.26,15.8 204.59,16.4 204.59,17.39 C204.59,18.23 205.28,19.05 206.54,19.05 C208.28,19.05 209.54,17.91 209.54,16.07 Z" id="Shape" fill="#009CDC" fill-rule="nonzero"></path>
            <path d="M214.43,19.8 L213.28,19.8 L213.28,10.69 L214.39,10.69 L214.39,12.14 C214.89,11.17 215.96,10.46 217.35,10.46 C219.49,10.46 220.58,11.99 220.58,13.86 L220.58,19.8 L219.43,19.8 L219.43,14.05 C219.43,12.62 218.72,11.49 216.97,11.49 C215.4,11.49 214.43,12.81 214.43,14.36 L214.43,19.8 L214.43,19.8 Z" id="Path" fill="#009CDC" fill-rule="nonzero"></path>
            <path d="M223.52,17.05 C223.69,18.16 224.53,19.06 226.02,19.06 C227.15,19.06 228.05,18.39 228.05,17.44 C228.05,16.6 227.48,16.14 226.5,15.91 L225.03,15.57 C223.69,15.26 222.79,14.46 222.79,13.14 C222.79,11.67 224.2,10.47 225.87,10.47 C227.99,10.47 228.89,11.73 229.14,12.82 L228.13,13.2 C227.96,12.32 227.33,11.46 225.88,11.46 C224.85,11.46 223.93,12.11 223.93,13.06 C223.93,13.84 224.43,14.3 225.36,14.51 L226.81,14.84 C228.32,15.18 229.18,16.04 229.18,17.36 C229.18,18.72 228.03,20.05 226.01,20.05 C223.77,20.05 222.65,18.62 222.47,17.41 L223.52,17.05 Z" id="Path" fill="#009CDC" fill-rule="nonzero"></path>
            <line x1="124.24" y1="0.28" x2="124.24" y2="23.53" id="Path" stroke="#009CDC" stroke-width="1.25"></line>
            <g id="Group" fill-rule="nonzero">
                <path d="M85.75,7.74 C84.73,7.74 83.89,6.9 83.89,5.88 C83.89,4.86 84.73,4.02 85.75,4.02 C86.8,4.02 87.61,4.84 87.61,5.88 C87.61,6.89 86.77,7.74 85.75,7.74 M33.25,19.71 L36.55,19.71 L36.94,9.79 L40.29,15.68 L42.08,15.68 L45.24,9.72 L45.67,19.71 L49.13,19.71 L48.42,4.42 L45.12,4.42 L41.22,11.59 L37.23,4.42 L33.95,4.42 L33.25,19.71 Z M59.82,16.46 C59.58,16.64 59.19,16.86 58.65,17.11 C58.11,17.36 57.42,17.49 56.56,17.49 C55.69,17.49 55,17.27 54.51,16.84 C54.01,16.4 53.76,15.9 53.74,15.32 L61.4,15.32 L61.4,14.77 C61.4,13.87 61.28,13.04 61.06,12.28 C60.83,11.52 60.49,10.87 60.04,10.33 C59.59,9.79 59.03,9.36 58.38,9.06 C57.72,8.75 56.96,8.6 56.09,8.6 C55.22,8.6 54.44,8.76 53.75,9.07 C53.06,9.38 52.48,9.8 52.01,10.32 C51.54,10.84 51.17,11.45 50.92,12.14 C50.67,12.84 50.54,13.56 50.54,14.31 C50.54,15.17 50.67,15.95 50.94,16.66 C51.21,17.37 51.6,17.98 52.11,18.48 C52.62,18.98 53.24,19.38 53.98,19.66 C54.71,19.94 55.54,20.08 56.46,20.08 C57.15,20.08 57.76,20.01 58.29,19.88 C58.82,19.75 59.29,19.6 59.68,19.43 C60.07,19.26 60.39,19.09 60.63,18.91 C60.87,18.73 61.06,18.61 61.18,18.53 L59.82,16.46 Z M53.74,13.2 C53.74,12.97 53.79,12.74 53.89,12.5 C53.99,12.26 54.13,12.04 54.32,11.85 C54.51,11.65 54.75,11.49 55.04,11.36 C55.33,11.23 55.67,11.17 56.05,11.17 C56.43,11.17 56.76,11.24 57.04,11.36 C57.31,11.49 57.54,11.65 57.73,11.85 C57.91,12.05 58.05,12.27 58.14,12.5 C58.23,12.74 58.28,12.97 58.28,13.2 L53.74,13.2 Z M72.6,19.71 L82.65,19.71 L82.65,16.88 L76.06,16.88 L76.06,4.42 L72.6,4.42 L72.6,19.71 Z M84.1,19.71 L87.4,19.71 L87.4,8.96 L85.75,8.96 L84.1,8.96 L84.1,19.71 L84.1,19.71 Z M98.6,5.14 C98.11,4.73 97.57,4.44 96.97,4.27 C96.37,4.1 95.78,4.02 95.2,4.02 C94.65,4.02 94.11,4.11 93.59,4.28 C93.06,4.46 92.59,4.72 92.18,5.08 C91.77,5.44 91.44,5.89 91.18,6.44 C90.93,6.99 90.8,7.65 90.8,8.41 L90.8,8.96 L89.06,8.96 L89.06,11.55 L90.8,11.55 L90.8,19.71 L94.08,19.71 L94.08,11.55 L96.62,11.55 L96.62,8.96 L94.08,8.96 L94.08,8.36 C94.08,7.83 94.22,7.41 94.49,7.12 C94.76,6.83 95.13,6.69 95.59,6.69 C95.88,6.69 96.16,6.74 96.44,6.83 C96.71,6.92 96.97,7.05 97.2,7.22 L98.6,5.14 Z M70.03,16.85 C69.82,17 69.59,17.14 69.34,17.25 C69.1,17.36 68.8,17.42 68.47,17.42 C68.03,17.42 67.7,17.28 67.49,17 C67.28,16.72 67.18,16.32 67.18,15.8 L67.18,11.56 L69.95,11.56 L69.95,8.97 L67.18,8.97 L67.18,6.09 L63.88,6.09 L63.88,8.97 L62.18,8.97 L62.18,11.56 L63.88,11.56 L63.88,15.62 C63.88,16.29 63.95,16.9 64.09,17.45 C64.23,18 64.46,18.47 64.78,18.86 C65.1,19.25 65.52,19.55 66.04,19.78 C66.56,20 67.2,20.11 67.96,20.11 C69.18,20.11 70.31,19.7 71.35,18.87 L70.03,16.85 Z M106.56,16.46 C106.32,16.64 105.93,16.86 105.39,17.11 C104.85,17.36 104.16,17.49 103.3,17.49 C102.43,17.49 101.74,17.27 101.25,16.84 C100.75,16.4 100.5,15.9 100.48,15.32 L108.13,15.32 L108.13,14.77 C108.13,13.87 108.02,13.04 107.79,12.28 C107.56,11.52 107.22,10.87 106.77,10.33 C106.32,9.79 105.77,9.36 105.11,9.06 C104.45,8.75 103.69,8.6 102.82,8.6 C101.95,8.6 101.17,8.76 100.48,9.07 C99.79,9.38 99.21,9.8 98.74,10.32 C98.27,10.84 97.9,11.45 97.65,12.14 C97.4,12.84 97.27,13.56 97.27,14.31 C97.27,15.17 97.4,15.95 97.67,16.66 C97.94,17.37 98.33,17.98 98.84,18.48 C99.35,18.98 99.98,19.38 100.71,19.66 C101.44,19.94 102.27,20.08 103.19,20.08 C103.88,20.08 104.49,20.01 105.02,19.88 C105.56,19.75 106.02,19.6 106.41,19.43 C106.8,19.26 107.12,19.09 107.36,18.91 C107.6,18.73 107.79,18.61 107.91,18.53 L106.56,16.46 Z M100.49,13.2 C100.49,12.97 100.54,12.74 100.64,12.5 C100.74,12.26 100.88,12.04 101.08,11.85 C101.27,11.65 101.51,11.49 101.8,11.36 C102.09,11.23 102.43,11.17 102.81,11.17 C103.19,11.17 103.52,11.24 103.79,11.36 C104.07,11.49 104.29,11.65 104.48,11.85 C104.66,12.05 104.8,12.27 104.89,12.5 C104.98,12.74 105.03,12.97 105.03,13.2 L100.49,13.2 Z" id="Shape" fill="#000000"></path>
                <path d="M12.91,7.79 C15.51,11.23 17.05,15.51 17.05,20.15 C17.05,21.27 16.96,22.37 16.79,23.44 L24.31,23.44 C24.96,23.44 25.49,22.91 25.49,22.25 L25.49,1.47 C25.49,0.7 24.76,0.12 24.01,0.32 C19.51,1.51 15.63,4.19 12.91,7.79" id="Path" fill="#A5CF4F"></path>
                <path d="M9.03,23.44 C8.86,22.37 8.77,21.27 8.77,20.15 C8.77,15.51 10.31,11.23 12.91,7.79 C10.19,4.18 6.3,1.51 1.81,0.33 C1.06,0.13 0.33,0.71 0.33,1.48 L0.33,22.26 C0.33,22.91 0.86,23.45 1.51,23.45 L9.03,23.45 L9.03,23.44 Z" id="Path" fill="#009CDC"></path>
                <path d="M12.91,7.79 C10.31,11.23 8.77,15.51 8.77,20.15 C8.77,21.27 8.86,22.37 9.03,23.44 L16.78,23.44 C16.95,22.37 17.04,21.27 17.04,20.15 C17.04,15.51 15.5,11.23 12.91,7.79" id="Path" fill="#0066A6"></path>
            </g>
        </g>
    </g>
</svg>
