<svg viewBox="0 0 150 83" xmlns="http://www.w3.org/2000/svg"><g transform="translate(44)" fill="none" fill-rule="evenodd"><rect stroke="#333647" stroke-width="1.848" fill="#FFF" fill-rule="nonzero" stroke-linecap="round" stroke-linejoin="round" x=".546" y="1.461" width="58.951" height="80.309" rx="1.32"/><path stroke="#333647" stroke-width="1.848" stroke-linecap="round" stroke-linejoin="round" d="M8.413 11.387H25.52M8.413 21.789H25.52M8.413 39.794h42.002M8.413 50.195h42.002M8.413 60.597h42.002M8.413 70.998H25.52"/><path d="M47.353 30.184H35.367c-.818 0-1.478-1.003-1.478-2.218V10.094c0-1.215.66-2.192 1.478-2.192h11.986c.818 0 1.478.977 1.478 2.192v17.872c0 1.215-.66 2.218-1.478 2.218z" fill="#FFDA83" fill-rule="nonzero"/><path d="M47.353 30.184H35.367c-.818 0-1.478-1.003-1.478-2.218V10.094c0-1.215 14.942 17.872 14.942 17.872 0 1.215-.66 2.218-1.478 2.218z" fill="#EFC37D" fill-rule="nonzero"/><path stroke="#333647" stroke-width="1.848" fill="#FFF" fill-rule="nonzero" stroke-linecap="round" stroke-linejoin="round" d="M73.86 4.621l6.597 5.361-42.174 51.895-6.597-5.36z"/><path stroke="#333647" stroke-width="1.848" fill="#E291C3" fill-rule="nonzero" stroke-linecap="round" stroke-linejoin="round" d="M73.89 4.629l6.598 5.36-5.362 6.598-6.597-5.361z"/><path d="M81.355 1.619l.184.15a1.98 1.98 0 01.288 2.785L78.63 8.487 75.373 5.84l3.13-3.852a1.98 1.98 0 012.852-.37z" stroke="#333647" stroke-width="1.848" fill="#FFF" fill-rule="nonzero" stroke-linecap="round" stroke-linejoin="round"/><path stroke="#333647" stroke-width="1.848" stroke-linecap="round" stroke-linejoin="round" d="M64.46 39.688l15.523-19.114-4.884-3.986"/><path stroke="#333647" stroke-width="1.848" fill="#FFF" fill-rule="nonzero" stroke-linecap="round" stroke-linejoin="round" d="M25.52 70.734l6.178-14.124 6.388 5.201z"/></g></svg>
